<?xml version="1.0" standalone="no"?><!DOCTYPE svg PUBLIC "-//W3C//DTD SVG 1.1//EN" "http://www.w3.org/Graphics/SVG/1.1/DTD/svg11.dtd"><svg t="1571308787257" class="icon" viewBox="0 0 1024 1024" version="1.1" xmlns="http://www.w3.org/2000/svg" p-id="6897" xmlns:xlink="http://www.w3.org/1999/xlink" width="200" height="200"><defs><style type="text/css"></style></defs><path d="M512 968.533333c-212.053333 0-384-18.346667-384-230.4 0-89.6 31.146667-176.64 88.746667-245.76 30.72-36.693333 99.413333-130.56 141.653333-153.6 28.586667-15.786667 44.373333 23.466667 76.8 15.36 25.173333-6.4 122.026667-130.56 176.64-130.56 52.48 0 8.106667 127.146667 53.76 145.92 18.346667 7.68 37.12-33.28 53.76-23.04 38.4 23.466667 65.28 117.76 93.013333 152.746667 54.186667 67.84 83.626667 151.893333 83.626667 238.933333 0 212.053333-171.946667 230.4-384 230.4zM415.146667 283.733333c-17.92 8.106667-11.52-24.746667-23.893334-52.053333S425.813333 153.6 443.733333 145.066667s20.053333 27.733333 32.426667 55.04-43.093333 75.52-61.013333 83.626666z m311.04-126.293333c-19.626667 1.28-4.693333-29.013333-7.68-57.173333s36.266667-46.08 55.893333-47.786667 20.48 32 23.04 59.733333-51.626667 43.52-71.253333 45.226667z" fill="#dbdbdb" p-id="6898"></path><path d="M158.72 883.2c-63.573333 0-76.8-51.626667-76.8-115.2s13.226667-115.2 76.8-115.2 115.2 51.626667 115.2 115.2-51.626667 115.2-115.2 115.2z m706.56 0c-63.573333 0-115.2-51.626667-115.2-115.2s51.626667-115.2 115.2-115.2 76.8 51.626667 76.8 115.2-13.226667 115.2-76.8 115.2z" fill="#dbdbdb" p-id="6899"></path><path d="M819.2 764.16c-3.413333 163.413333-139.52 162.986667-307.2 162.986667s-303.786667 0.426667-307.2-162.986667v-5.973333c0-63.573333 51.626667-115.2 115.2-115.2 39.68 0 76.373333 20.48 97.706667 53.76 40.96 52.053333 116.48 61.013333 168.533333 20.053333 7.68-5.973333 14.506667-12.8 20.48-20.48 34.133333-53.76 104.96-69.973333 158.72-35.84 33.28 20.906667 53.76 58.026667 53.76 97.28v6.4z" fill="#dbdbdb" p-id="6900"></path><path d="M738.56 800.853333h-84.48c-6.4 0-11.52-5.12-11.52-11.52 0-6.4 5.12-11.52 11.52-11.52h84.48c6.4 0 11.52 5.12 11.52 11.52 0 6.4-5.12 11.52-11.52 11.52z m-368.64 0H285.44c-6.4 0-11.52-5.12-11.52-11.52 0-6.4 5.12-11.52 11.52-11.52h84.48c6.4 0 11.52 5.12 11.52 11.52 0 6.4-5.12 11.52-11.52 11.52z" fill="#dbdbdb" p-id="6901"></path></svg>