<svg xmlns="http://www.w3.org/2000/svg" class="icon" viewBox="0 0 81.92 81.92" version="1.1" width="16" height="16" id="svg102"><defs id="defs92"><style type="text/css" id="style90"/></defs><g id="g112" transform="translate(-1.962 -1.834) scale(.08383)" fill="#dbdbdb"><path d="M512 968.533c-212.053 0-384-18.346-384-230.4 0-89.6 31.147-176.64 88.747-245.76 30.72-36.693 99.413-130.56 141.653-153.6 28.587-15.786 44.373 23.467 76.8 15.36 25.173-6.4 122.027-130.56 176.64-130.56 52.48 0 8.107 127.147 53.76 145.92 18.347 7.68 37.12-33.28 53.76-23.04 38.4 23.467 65.28 117.76 93.013 152.747C866.56 567.04 896 651.093 896 738.133c0 212.054-171.947 230.4-384 230.4zm-96.853-684.8c-17.92 8.107-11.52-24.746-23.894-52.053-12.373-27.307 34.56-78.08 52.48-86.613 17.92-8.534 20.054 27.733 32.427 55.04 12.373 27.306-43.093 75.52-61.013 83.626zm311.04-126.293c-19.627 1.28-4.694-29.013-7.68-57.173-2.987-28.16 36.266-46.08 55.893-47.787 19.627-1.707 20.48 32 23.04 59.733 2.56 27.734-51.627 43.52-71.253 45.227z" id="path94"/><path d="M158.72 883.2c-63.573 0-76.8-51.627-76.8-115.2s13.227-115.2 76.8-115.2c63.573 0 115.2 51.627 115.2 115.2s-51.627 115.2-115.2 115.2zm706.56 0c-63.573 0-115.2-51.627-115.2-115.2s51.627-115.2 115.2-115.2 76.8 51.627 76.8 115.2-13.227 115.2-76.8 115.2z" id="path96"/><path d="M819.2 764.16C815.787 927.573 679.68 927.147 512 927.147c-167.68 0-303.787.426-307.2-162.987v-5.973c0-63.574 51.627-115.2 115.2-115.2 39.68 0 76.373 20.48 97.707 53.76 40.96 52.053 116.48 61.013 168.533 20.053a116.305 116.305 0 0020.48-20.48c34.133-53.76 104.96-69.973 158.72-35.84 33.28 20.907 53.76 58.027 53.76 97.28z" id="path98"/><path d="M738.56 800.853h-84.48c-6.4 0-11.52-5.12-11.52-11.52 0-6.4 5.12-11.52 11.52-11.52h84.48c6.4 0 11.52 5.12 11.52 11.52 0 6.4-5.12 11.52-11.52 11.52zm-368.64 0h-84.48c-6.4 0-11.52-5.12-11.52-11.52 0-6.4 5.12-11.52 11.52-11.52h84.48c6.4 0 11.52 5.12 11.52 11.52 0 6.4-5.12 11.52-11.52 11.52z" id="path100"/></g></svg>